#!OML:ASF H:\MichaelJackson\Top Level 1\Subject 1\Session 1\male.ASF
:FULLY-SPECIFIED
:DEGREES
591
root 4.26149 16.5736 -15.7336 12.3132 1.86144 -3.8344
lowerback 10.0182 0.153546 -1.66388
upperback 2.68478 0.00561836 -0.925516
thorax -2.8243 0.00968862 -0.0227524
lowerneck -8.16158 -0.943999 1.48639
upperneck -2.1627 -1.41291 3.42702
head 0.701862 -0.667038 0.767201
rclavicle -1.98785e-015 8.74653e-015
rhumerus -48.6313 -8.62208 -82.6348
rradius 32.7232
rwrist 14.978
rhand -35.8859 -32.5031
rfingers 7.12502
rthumb -8.99972 -62.2911
lclavicle -1.98785e-015 8.74653e-015
lhumerus -28.1453 -27.5446 79.1662
lradius 99.4452
lwrist 33.007
lhand -15.7013 15.9185
lfingers 7.12502
lthumb 10.4883 45.6369
rfemur -52.4966 -12.9316 19.7666
rtibia 111.292
rfoot 9.61611 1.5788
rtoes 9.50458
lfemur -42.7314 22.3169 -29.566
ltibia 44.5833
lfoot -15.8602 -21.3555
ltoes 32.5985
592
root 4.28023 16.6301 -15.5848 12.3746 2.35231 -3.45288
lowerback 10.0312 -0.130457 -1.61198
upperback 2.70917 -0.364676 -0.94449
thorax -2.80219 -0.174013 -0.0262954
lowerneck -8.25326 -0.871976 1.44915
upperneck -2.15455 -1.31524 3.26658
head 0.717529 -0.6193 0.726342
rclavicle -1.15295e-014 -2.54444e-014
rhumerus -48.8965 -7.67277 -82.9063
rradius 32.5826
rwrist 15.722
rhand -34.2262 -29.7053
rfingers 7.12502
rthumb -7.39792 -59.556
lclavicle -1.15295e-014 -2.54444e-014
lhumerus -26.975 -27.3109 77.5477
lradius 101.159
lwrist 33.2182
lhand -12.8215 15.3228
lfingers 7.12502
lthumb 13.2653 44.8806
rfemur -54.4898 -12.9454 19.9433
rtibia 112.242
rfoot 8.98068 1.41273
rtoes 9.84179
lfemur -41.5977 22.1091 -29.7303
ltibia 43.6031
lfoot -15.8083 -21.7872
ltoes 32.4434
593
root 4.29828 16.686 -15.435 12.4205 2.83299 -3.04898
lowerback 10.0384 -0.396686 -1.59887
upperback 2.73224 -0.715204 -0.962948
thorax -2.77864 -0.347783 -0.0100637
lowerneck -8.32071 -0.814152 1.41336
upperneck -2.14386 -1.23598 3.11429
head 0.7303 -0.580924 0.687347
rclavicle -8.74653e-015 4.77083e-015
rhumerus -49.2455 -6.60124 -83.2664
rradius 32.6825
rwrist 16.2808
rhand -32.3985 -26.8147
rfingers 7.12502
rthumb -5.63348 -56.7198
lclavicle -8.74653e-015 4.77083e-015
lhumerus -25.7936 -26.8636 75.9724
lradius 102.691
lwrist 33.7619
lhand -9.69282 14.798
lfingers 7.12502
lthumb 16.2794 44.1346
rfemur -56.3274 -12.8834 20.0814
rtibia 112.903
rfoot 8.21388 1.41741
rtoes 9.98773
lfemur -40.4182 21.9025 -29.8948
ltibia 42.5906
lfoot -15.7861 -22.1965
ltoes 32.1782
594
root 4.31566 16.7406 -15.2841 12.4531 3.28522 -2.62837
lowerback 10.0263 -0.637318 -1.63471
upperback 2.76061 -1.03605 -0.976062
thorax -2.73853 -0.506834 0.0351607
lowerneck -8.36536 -0.769749 1.38087
upperneck -2.13842 -1.17407 2.96395
head 0.737811 -0.551567 0.647969
rclavicle -3.18055e-015 -1.59028e-014
rhumerus -49.6708 -5.4682 -83.67
rradius 33.01
rwrist 16.6844
rhand -30.4374 -23.9687
rfingers 7.12502
rthumb -3.73988 -53.9156
lclavicle -3.18055e-015 -1.59028e-014
lhumerus -24.5967 -26.207 74.4694
lradius 104.045
lwrist 34.717
lhand -6.39804 14.4156
lfingers 7.12502
lthumb 19.4497 43.4628
rfemur -58.0112 -12.7238 20.1782
rtibia 113.277
rfoot 7.31796 1.56059
rtoes 9.86087
lfemur -39.1938 21.6936 -30.0459
ltibia 41.5578
lfoot -15.7865 -22.5908
ltoes 31.8909
595
root 4.33228 16.7932 -15.1319 12.4708 3.70528 -2.19588
lowerback 10.0123 -0.851531 -1.70824
upperback 2.78348 -1.32585 -0.991807
thorax -2.70224 -0.650394 0.0947436
lowerneck -8.38016 -0.739467 1.36387
upperneck -2.12859 -1.13175 2.81663
head 0.74181 -0.532269 0.606436
rclavicle -1.15295e-014 -7.95139e-016
rhumerus -50.1976 -4.33647 -84.09
rradius 33.5473
rwrist 16.9981
rhand -28.4393 -21.3144
rfingers 7.12502
rthumb -1.81016 -51.2865
lclavicle -1.15295e-014 -7.95139e-016
lhumerus -23.3903 -25.3684 73.052
lradius 105.22
lwrist 36.122
lhand -3.05071 14.2318
lfingers 7.12502
lthumb 22.6653 42.9208
rfemur -59.5346 -12.4613 20.2325
rtibia 113.37
rfoot 6.35955 1.80056
rtoes 9.58583
lfemur -37.9332 21.4872 -30.186
ltibia 40.5146
lfoot -15.7943 -22.9518
ltoes 31.5472
596
root 4.34852 16.8436 -14.9779 12.4732 4.08 -1.77049
lowerback 9.98254 -1.03457 -1.80546
upperback 2.80741 -1.57626 -1.00434
thorax -2.6553 -0.774534 0.165541
lowerneck -8.36985 -0.721142 1.36224
upperneck -2.11447 -1.10622 2.66533
head 0.742953 -0.52167 0.560676
rclavicle 6.36111e-015 5.56597e-015
rhumerus -50.8068 -3.28204 -84.4737
rradius 34.2655
rwrist 17.2544
rhand -26.4663 -18.8701
rfingers 7.12502
rthumb 0.0954159 -48.8499
lclavicle 6.36111e-015 5.56597e-015
lhumerus -22.161 -24.3512 71.7455
lradius 106.205
lwrist 37.9477
lhand 0.244923 14.2843
lfingers 7.12502
lthumb 25.8249 42.5511
rfemur -60.8939 -12.083 20.2551
rtibia 113.183
rfoot 5.37165 2.0778
rtoes 9.17021
lfemur -36.6426 21.2812 -30.296
ltibia 39.4712
lfoot -15.8283 -23.2589
ltoes 31.1329
